<svg xmlns="http://www.w3.org/2000/svg" width="2500" height="1563" viewBox="0 0 2500 1563"><path fill="#fff" d="M984.3 781.3c0-218.4-178-396.4-396.4-396.4S191.5 562.9 191.5 781.3s178 396.4 396.4 396.4 396.4-178 396.4-396.4z"/><path fill="#fff" d="M1515.7 384.9c-218.4 0-396.4 178-396.4 396.4s178 396.4 396.4 396.4 396.4-178 396.4-396.4-178-396.4-396.4-396.4zm0 634.3c-131.3 0-237.9-106.6-237.9-237.9s106.6-237.9 237.9-237.9 237.9 106.6 237.9 237.9-106.6 237.9-237.9 237.9z"/><path fill="#fff" d="M1041.4 781.3c0-131.3 106.6-237.9 237.9-237.9s237.9 106.6 237.9 237.9-106.6 237.9-237.9 237.9-237.9-106.6-237.9-237.9z"/></svg>