<svg xmlns="http://www.w3.org/2000/svg" width="1000" height="323" viewBox="0 0 1000 323"><path fill="#fff" d="M383.3 103.3c-15.3-4.2-33.3-8.3-53.3-11.7-20-2.5-39.2-3.3-56.7-3.3-68.3 0-120 19.2-120 60.8 0 30 33.3 48.3 55.8 55.8 24.2 8.3 36.7 12.5 36.7 19.2 0 9.2-12.5 15.8-30.8 15.8-21.7 0-40.8-4.2-55-10L145 251.7c17.5 5 40 9.2 64.2 9.2 72.5 0 125.8-20 125.8-63.3 0-25.8-25-45.8-55-55-20.8-6.7-38.3-11.7-38.3-19.2 0-8.3 11.7-14.2 29.2-14.2 19.2 0 35 3.3 48.3 7.5L383.3 103.3zM675.8 88.3h-100c-12.5 0-22.5 3.3-26.7 15.8L473.3 260h59.2l20-56.7h98.3l-10 27.5-23.3 29.2h60L675.8 88.3zm-73.3 115L620 142.5l14.2 60.8h-71.7zM950.8 130c-10.8-25-39.2-41.7-73.3-41.7-52.5 0-93.3 30-93.3 74.2 0 28.3 20.8 51.7 47.5 61.7l30.8 11.7L950.8 130zm-100.8 96.7c-9.2 0-16.7-1-22.5-2.5-20-6.7-33.3-20.8-33.3-39.2 0-25 22.5-38.3 42.5-38.3 8.3 0 15 1.7 20.8 3.3l-4.2 20c-5-1.7-10-2.5-15.8-2.5-7.5 0-12.5 2.5-12.5 7.5s5 6.7 14.2 10l36.7 14.2c20 8.3 30.8 20.8 30.8 38.3C875 215 860.8 226.7 850 226.7zM688.3 88.3h57.5L695 260h-57.5L688.3 88.3z"/></svg>